<?xml version="1.0" encoding="UTF-8"?>
<svg id="Calque_2" data-name="Calque 2" xmlns="http://www.w3.org/2000/svg" viewBox="0 0 206.36 206.74">
  <defs>
    <style>
      .cls-1, .cls-2 {
        fill: #fff;
      }

      .cls-3 {
        letter-spacing: 0em;
      }

      .cls-4 {
        letter-spacing: -.01em;
      }

      .cls-5 {
        letter-spacing: -.06em;
      }

      .cls-2 {
        font-family: Dosis-SemiBold, Dosis;
        font-size: 8.82px;
      }

      .cls-6 {
        letter-spacing: -.01em;
      }
    </style>
  </defs>
  <g id="Calque_1-2" data-name="Calque 1">
    <path class="cls-1" d="M95.4,206.74c-2.06-.9-4.28-.45-6.43-.76-14.74-2.19-28.44-7.11-41.06-15.04-16.22-10.18-28.56-23.88-37.23-40.92-3.85-7.56-6.88-15.46-8.67-23.73C-.02,116.89-.16,107.32,.1,97.71c.18-6.87,1.19-13.55,2.9-20.18,3.59-13.96,9.85-26.59,18.72-37.92,7.93-10.12,17.41-18.49,28.45-25.09,7.02-4.19,14.46-7.4,22.26-9.93C85.7,.28,99.29-.69,113.05,.43c6.89,.56,13.66,2.06,20.32,4.13,9.73,3.03,18.79,7.34,27.21,13.02,15.13,10.19,26.69,23.5,34.85,39.83,3.44,6.87,6.11,14.02,7.88,21.45,2.36,9.87,3.57,19.94,2.83,30.09-.41,5.65-1.19,11.28-2.43,16.87-2.33,10.47-6.13,20.32-11.5,29.55-7.55,12.97-17.47,23.82-29.74,32.51-8.3,5.88-17.27,10.43-26.89,13.67-5.55,1.87-11.27,3.14-17.07,4.11-2.87,.48-5.8,.35-8.62,1.1h-3.23c-2.1-.89-4.29-.3-6.44-.37-1.2-.04-2.51-.48-3.64,.37h-1.21ZM3.48,103c-.52,53.98,44.18,102.05,103.53,100,51.39-1.78,95.64-43.78,95.69-99.84,.05-54.64-44.13-99.58-99.68-99.64C48.05,3.47,3.27,48.19,3.48,103Z"/>
    <path class="cls-1" d="M20.16,99.63c.03-48.89,38.74-85.33,82.02-87.52,55.59-2.81,91.15,40.48,93.11,82.56,2.51,54.1-40.02,91.15-83.99,92.73-51.41,1.86-91.56-39.35-91.14-87.77Zm132.08,4.35c0-4.97,.06-9.94-.02-14.91-.07-4.16,.89-8.06,2.88-11.65,3.43-6.2,8.61-10.03,15.65-11.43,3.4-.68,6.8-.6,10.2-.67,1.59-.03,1.85-.45,1.14-1.87-2.84-5.72-6.28-11.03-10.29-16.02-6.66-8.31-14.71-14.9-23.95-20.09-5.7-3.21-11.7-5.67-18.06-7.38-4.25-1.14-8.52-2.3-12.86-2.57-4.93-.32-9.88-.48-14.86-.23-6.19,.31-12.18,1.47-18.01,3.22-8.51,2.56-16.42,6.42-23.74,11.65-6.57,4.69-12.37,10.05-17.35,16.32-6.26,7.88-10.84,16.63-13.91,26.26-2.34,7.36-3.58,14.86-3.82,22.53-.32,10.56,1.22,20.85,4.9,30.78,3.39,9.15,8.13,17.54,14.46,24.94,10.88,12.71,24.2,21.71,40.45,26.28,5.88,1.65,11.81,2.5,17.85,3.09,4.59,.45,9.08-.14,13.62-.39,6.37-.34,12.46-1.9,18.39-3.94,9.38-3.22,17.92-8.1,25.57-14.47,8.55-7.12,15.33-15.63,20.52-25.48,3.04-5.77,5.34-11.8,6.96-18.07,1.02-3.98,1.79-8.08,2.09-12.17,.32-4.39,.35-8.82,.17-13.26-.25-6.25-1.65-12.25-3.08-18.25-.78-3.3-1-3.24-4.41-3.22-.74,0-1.48-.02-2.22,.01-3.08,.14-6.3-.23-9.21,.54-6.98,1.84-11.45,7.86-11.43,14.77,.01,3.69,.08,7.39-.02,11.08-.04,1.65,.48,2.2,2.16,2.22,3.28,.04,6.58-.37,9.84,.26,2.03,.39,3.57,2.12,3.35,3.8-.22,1.73-2.09,3.7-4.11,3.58-3.15-.19-6.31,0-9.47-.07-1.31-.03-1.78,.4-1.75,1.73,.07,3.02,.02,6.05,0,9.07,0,1.21-.11,2.42-.77,3.46-1.02,1.59-2.69,1.89-4.27,1.37-1.71-.55-2.6-1.98-2.6-3.89,.02-5.64,0-11.29,0-16.93Z"/>
    <path class="cls-1" d="M87.33,100.6c0,4.84-.15,9.68,.04,14.51,.24,5.97-7.53,11.41-13.34,9.18-4.54-1.74-6.43-5.2-7.64-9.39-1.49-5.13-3.09-10.22-4.66-15.33-.73-2.39-1.46-4.79-2.16-7.2-.68-2.36-2.03-3.58-3.54-3.33-1.71,.28-2.57,1.65-2.57,4.14,0,8.93,0,17.87,0,26.8,0,1.16-.04,2.31-.85,3.2-1.01,1.13-2.18,2.04-3.86,1.41-1.79-.66-2.94-1.87-2.95-3.86-.03-5.11-.01-10.21-.01-15.32,0-4.43-.08-8.87,.02-13.3,.13-5.55,3.3-8.99,7.42-10.26,5.98-1.85,11.82,1.86,13.56,7.96,1.68,5.89,3.72,11.68,5.41,17.57,.69,2.41,1.53,4.78,2.17,7.2,.44,1.66,1.47,2.45,3,2.38,1.54-.06,2.36-1.2,2.45-2.69,.13-2.14,.17-4.29,.18-6.44,.03-7.39,.02-14.78,.05-22.16,.01-2.82,1.15-3.98,3.75-3.96,2.52,.02,3.51,1.12,3.52,3.95,.01,4.97,0,9.94,0,14.91Z"/>
    <path class="cls-1" d="M112.33,102.28c.27-3.66-.36-8.16,.37-12.64,.61-3.72,5.04-8.19,9.19-7.96,4.82,.27,9.67-.08,14.5,.14,3.06,.14,6.7,3.04,7.71,6.91,1.14,4.32,1.12,8.75,.05,13.11-.93,3.79-5.56,7.33-9.5,7.34-4.3,0-8.6,.04-12.9-.02-1.28-.02-1.76,.37-1.79,1.72-.12,4.81-.09,6.58,6.15,6.39,4.3-.13,8.6-.04,12.9-.02,2.34,0,3.72,1,3.98,2.8,.35,2.45-.59,4.44-2.99,4.56-6.79,.32-13.69,1.29-20.37-.58-4.62-1.29-7.22-5.36-7.29-10.24-.05-3.56,0-7.12,0-11.5Zm15.27-.74h0c2.08,0,4.16,.06,6.24,0,2.13-.07,3.06-1,3.12-3.07,.05-2.14,.05-4.29,0-6.44-.05-1.95-1.05-2.97-2.94-2.99-3.62-.04-7.24-.03-10.87,0-1.92,.01-3.1,1.18-3.14,3.11-.04,2.55,0,5.1-.02,7.65-.01,1.24,.44,1.83,1.78,1.77,1.94-.09,3.89-.02,5.83-.02Z"/>
    <path class="cls-1" d="M96.24,104.47c0-5.78,0-11.55,0-17.33,0-1.07-.03-2.14,.35-3.18,.65-1.76,1.91-2.33,3.75-2.26,1.75,.07,2.69,.93,3.13,2.48,.2,.7,.3,1.45,.3,2.17,.03,11.62,.13,23.24,.03,34.85-.09,11.43-5.35,19.66-15.84,24.31-3.23,1.43-6.74,2.02-10.32,1.97-1.95-.03-3.9,.02-5.84-.01-2.44-.04-4.53-1.85-4.58-3.91-.05-2.22,1.75-3.73,4.47-3.84,2.95-.12,5.89,.13,8.85-.18,7.51-.8,13.93-6.68,15.29-13.98,.46-2.47,.35-4.93,.38-7.39,.05-4.57,.01-9.13,.01-13.7h.02Z"/>
    <text class="cls-2" transform="translate(45.78 60.05) scale(1.05 1)"><tspan x="0" y="0" xml:space="preserve">    NOUVELLES JOURNÉES</tspan><tspan x="0" y="10.58">D’</tspan><tspan class="cls-4" x="6.57" y="10.58">E</tspan><tspan x="11.07" y="10.58">CHOGRAPHIE </tspan><tspan class="cls-6" x="59.28" y="10.58">F</tspan><tspan class="cls-3" x="63.6" y="10.58">Œ </tspan><tspan class="cls-5" x="72.71" y="10.58">T</tspan><tspan x="76.64" y="10.58">ALE</tspan></text>
  </g>
</svg>